HIERARCHY
ROOT Hips
{
	OFFSET -0.001795 -0.223333 0.028219
	CHANNELS 6 Xposition Yposition Zposition Zrotation Yrotation Xrotation 
	JOINT LeftUpLeg
	{
		OFFSET 0.069520 -0.091406 -0.006815
		CHANNELS 3 Zrotation Yrotation Xrotation
		JOINT LeftLeg
		{
			OFFSET 0.034277 -0.375199 -0.004496
			CHANNELS 3 Zrotation Yrotation Xrotation
			JOINT LeftFoot
			{
				OFFSET -0.013596 -0.397961 -0.043693
				CHANNELS 3 Zrotation Yrotation Xrotation
				JOINT LeftToe
				{
					OFFSET 0.026358 -0.055791 0.119288
					CHANNELS 3 Zrotation Yrotation Xrotation
					End Site
					{
						OFFSET 0.000000 0.000000 0.000000
					}
				}
			}
		}
	}
	JOINT RightUpLeg
	{
		OFFSET -0.067670 -0.090522 -0.004320
		CHANNELS 3 Zrotation Yrotation Xrotation
		JOINT RightLeg
		{
			OFFSET -0.038290 -0.382569 -0.008850
			CHANNELS 3 Zrotation Yrotation Xrotation
			JOINT RightFoot
			{
				OFFSET 0.015774 -0.398415 -0.042312
				CHANNELS 3 Zrotation Yrotation Xrotation
				JOINT RightToe
				{
					OFFSET -0.025372 -0.048144 0.123348
					CHANNELS 3 Zrotation Yrotation Xrotation
					End Site
					{
						OFFSET 0.000000 0.000000 0.000000
					}
				}
			}
		}
	}
	JOINT Spine
	{
		OFFSET -0.002533 0.108963 -0.026696
		CHANNELS 3 Zrotation Yrotation Xrotation
		JOINT Spine1
		{
			OFFSET 0.005487 0.135180 0.001092
			CHANNELS 3 Zrotation Yrotation Xrotation
			JOINT Spine2
			{
				OFFSET 0.001457 0.052922 0.025425
				CHANNELS 3 Zrotation Yrotation Xrotation
				JOINT Neck
				{
					OFFSET -0.002778 0.213870 -0.042857
					CHANNELS 3 Zrotation Yrotation Xrotation
					JOINT Head
					{
						OFFSET 0.005152 0.064970 0.051349
						CHANNELS 3 Zrotation Yrotation Xrotation
						End Site
						{
							OFFSET 0.000000 0.000000 0.000000
						}
					}
				}
				JOINT LeftShoulder
				{
					OFFSET 0.078845 0.121749 -0.034090
					CHANNELS 3 Zrotation Yrotation Xrotation
					JOINT LeftArm
					{
						OFFSET 0.090977 0.030469 -0.008868
						CHANNELS 3 Zrotation Yrotation Xrotation
						JOINT LeftForeArm
						{
							OFFSET 0.259612 -0.012772 -0.027456
							CHANNELS 3 Zrotation Yrotation Xrotation
							JOINT LeftHand
							{
								OFFSET 0.249234 0.008986 -0.001171
								CHANNELS 3 Zrotation Yrotation Xrotation
								End Site
								{
									OFFSET 0.000000 0.000000 0.000000
								}
							}
						}
					}
				}
				JOINT RightShoulder
				{
					OFFSET -0.081759 0.118833 -0.038615
					CHANNELS 3 Zrotation Yrotation Xrotation
					JOINT RightArm
					{
						OFFSET -0.096012 0.032551 -0.009143
						CHANNELS 3 Zrotation Yrotation Xrotation
						JOINT RightForeArm
						{
							OFFSET -0.253742 -0.013329 -0.021401
							CHANNELS 3 Zrotation Yrotation Xrotation
							JOINT RightHand
							{
								OFFSET -0.255298 0.007772 -0.005559
								CHANNELS 3 Zrotation Yrotation Xrotation
								End Site
								{
									OFFSET 0.000000 0.000000 0.000000
								}
							}
						}
					}
				}
			}
		}
	}
}
MOTION
Frames: 18
Frame Time: 0.050000
0.030912 0.935745 -0.030299 0.218103 -6.728039 10.780320 3.513398 -0.801148 -12.820631 1.860124 -0.205328 -0.202050 -2.409355 -2.900154 5.209699 0.000000 0.000000 0.000000 -5.718262 1.224402 -15.342086 -4.363474 0.590894 2.361734 3.764346 4.805765 6.504952 0.000000 0.000000 0.000000 4.943954 -0.589091 4.456276 -0.921894 0.437982 -5.131085 -2.835070 6.946440 6.352444 9.939363 -4.806848 -14.568528 0.000000 0.000000 0.000000 20.191624 -2.752139 2.725669 3.972652 -19.765742 -1.493380 59.743160 -27.266692 -15.565566 0.000000 0.000000 0.000000 -20.432693 -1.411638 0.652970 -1.251281 18.741780 -1.100946 -61.813042 30.860380 -14.632365 0.000000 0.000000 0.000000
0.030165 0.934549 -0.029992 -0.150400 -6.922973 10.200011 3.883168 -0.732226 -12.197050 1.958130 -0.237851 0.220899 -2.131912 -2.563324 4.737162 0.000000 0.000000 0.000000 -5.799652 1.209918 -15.247903 -3.815465 0.603856 3.313167 4.022374 5.514173 6.307670 0.000000 0.000000 0.000000 4.894085 -0.593049 4.694581 -1.105245 0.510697 -5.100284 -2.723823 7.050756 6.543244 10.209050 -4.968602 -14.691866 0.000000 0.000000 0.000000 20.877285 -3.445534 2.863279 4.696311 -19.569546 -1.520621 59.512757 -26.783804 -15.243953 0.000000 0.000000 0.000000 -19.930688 -1.185978 0.654429 -1.397950 18.599355 -1.103235 -61.528794 31.108305 -14.741061 0.000000 0.000000 0.000000
0.029822 0.932959 -0.029832 -0.345422 -7.037528 9.636415 4.115898 -0.689210 -11.809048 1.968393 -0.264929 0.752921 -1.818946 -2.253829 3.981802 0.000000 0.000000 0.000000 -5.695333 1.205496 -15.154078 -3.507732 0.628053 4.097346 3.792209 5.257264 5.903243 0.000000 0.000000 0.000000 4.831278 -0.578290 4.687591 -1.138632 0.523535 -4.839393 -2.804778 6.905176 6.604814 9.901666 -4.888033 -14.227755 0.000000 0.000000 0.000000 21.493499 -3.732001 2.909747 5.486178 -19.682151 -1.581150 59.845967 -26.912335 -15.384357 0.000000 0.000000 0.000000 -20.062766 -0.924815 0.731529 -1.813361 18.570045 -1.129887 -62.653430 32.638604 -16.089798 0.000000 0.000000 0.000000
0.029776 0.931888 -0.030093 -0.545290 -7.340155 9.297959 4.562074 -0.634838 -11.640208 1.665306 -0.264691 1.587195 -1.134305 -1.323569 2.877088 0.000000 0.000000 0.000000 -5.592208 1.218177 -15.208622 -3.218826 0.618341 4.457695 3.704662 5.302465 5.516179 0.000000 0.000000 0.000000 5.009520 -0.577213 4.587606 -1.430559 0.642778 -4.521641 -2.882320 6.886895 6.639768 10.488670 -5.367615 -13.839151 0.000000 0.000000 0.000000 21.924950 -4.653952 3.025641 5.263758 -19.395985 -1.523821 62.220047 -26.475294 -15.860156 0.000000 0.000000 0.000000 -20.053094 -0.128639 0.891957 -2.384946 18.150504 -1.137620 -63.957513 32.213709 -16.362527 0.000000 0.000000 0.000000
0.029950 0.930030 -0.030505 -0.677521 -8.052725 9.169555 4.674130 -0.611201 -11.662904 1.688294 -0.287482 2.037804 -0.881536 -0.915043 2.664672 0.000000 0.000000 0.000000 -5.633277 1.245502 -15.429621 -3.140567 0.658269 5.121412 3.748654 5.864938 4.820490 0.000000 0.000000 0.000000 5.027520 -0.565321 4.484053 -1.662256 0.731338 -4.612536 -3.126393 7.756107 6.629148 10.870950 -5.542855 -13.980092 0.000000 0.000000 0.000000 21.691638 -5.441091 3.218408 5.170268 -20.638034 -1.685031 64.877860 -24.020193 -15.414711 0.000000 0.000000 0.000000 -20.121933 0.446313 0.892510 -2.099539 17.658094 -1.067352 -66.376112 32.056074 -16.842675 0.000000 0.000000 0.000000
0.030046 0.927915 -0.030911 -0.991501 -8.735174 9.012372 5.012385 -0.558165 -11.450766 1.614668 -0.289342 2.321690 -0.667934 -0.979551 1.319184 0.000000 0.000000 0.000000 -5.136445 1.303464 -15.586954 -3.283853 0.735869 5.843223 3.558532 6.186055 3.746992 0.000000 0.000000 0.000000 5.088868 -0.580846 4.698034 -1.648230 0.712678 -5.146277 -3.123872 8.097094 7.170267 11.792820 -5.917989 -15.106177 0.000000 0.000000 0.000000 20.760451 -6.596893 3.294813 4.503658 -21.570854 -1.738784 69.282980 -21.332466 -14.966678 0.000000 0.000000 0.000000 -19.941705 1.183722 1.001059 -2.274775 19.211028 -1.187268 -68.399781 31.521038 -17.228214 0.000000 0.000000 0.000000
0.029759 0.926603 -0.030890 -1.023440 -9.016931 8.951362 5.442989 -0.514684 -11.555034 1.260125 -0.240741 2.350783 -1.023875 -1.647084 1.545785 0.000000 0.000000 0.000000 -4.963452 1.317619 -15.552826 -3.223945 0.746348 6.076171 3.289968 5.890010 3.264458 0.000000 0.000000 0.000000 5.191417 -0.589953 4.752893 -2.088100 0.889221 -5.291072 -3.404554 8.208342 7.203873 12.486301 -6.037742 -16.544690 0.000000 0.000000 0.000000 19.552257 -8.416921 3.516229 4.664478 -22.105350 -1.815860 73.052765 -21.488517 -16.129282 0.000000 0.000000 0.000000 -19.514546 2.151773 1.156534 -2.385279 19.719027 -1.230520 -69.744537 32.831201 -18.615600 0.000000 0.000000 0.000000
0.028989 0.927294 -0.030285 -1.057665 -9.141065 8.784124 5.602893 -0.477201 -10.791987 1.488371 -0.223355 1.072372 -1.582305 -2.385303 2.651951 0.000000 0.000000 0.000000 -5.020225 1.258079 -14.828849 -3.507354 0.732080 5.417826 3.470937 6.054974 3.597411 0.000000 0.000000 0.000000 4.832692 -0.551253 4.636540 -2.066918 0.878534 -5.363360 -3.543163 8.588928 7.152985 12.465708 -5.741011 -17.641199 0.000000 0.000000 0.000000 20.155203 -9.132249 3.703682 5.481274 -22.908519 -2.012737 72.633663 -23.227760 -17.372456 0.000000 0.000000 0.000000 -20.718034 2.731469 1.217211 -2.582684 19.173435 -1.183545 -69.137230 37.411446 -21.377949 0.000000 0.000000 0.000000
0.027897 0.930375 -0.029071 -1.316824 -8.943649 8.661709 6.175737 -0.414771 -10.140160 1.341932 -0.157500 -0.091385 -2.206299 -3.198979 3.767425 0.000000 0.000000 0.000000 -4.434073 1.217084 -13.944026 -3.659969 0.681625 4.558624 3.496623 5.370395 4.555814 0.000000 0.000000 0.000000 4.753661 -0.507973 4.161475 -2.247249 0.959953 -5.064864 -3.279068 8.380469 6.879473 13.241381 -6.178255 -17.815716 0.000000 0.000000 0.000000 21.280833 -9.105992 3.713550 7.047205 -22.163384 -2.057828 70.533401 -26.175794 -18.686690 0.000000 0.000000 0.000000 -22.214608 3.727631 1.429990 -4.027092 18.472594 -1.216770 -65.788875 40.803422 -22.331048 0.000000 0.000000 0.000000
0.026793 0.933384 -0.027407 -1.440308 -8.819909 8.811699 6.840170 -0.353847 -9.480289 0.877148 -0.038083 -1.725461 -2.817141 -3.611879 5.700443 0.000000 0.000000 0.000000 -4.297362 1.160131 -13.147231 -3.780260 0.571387 3.028745 3.420577 4.531698 5.444066 0.000000 0.000000 0.000000 4.602583 -0.428036 3.219498 -2.163248 0.926778 -5.057052 -3.372767 8.870765 6.474815 13.617126 -6.341593 -17.784529 0.000000 0.000000 0.000000 23.186471 -8.991372 3.874322 7.525840 -21.513512 -2.039059 67.872380 -28.105895 -19.303926 0.000000 0.000000 0.000000 -23.487893 4.070464 1.393938 -4.317652 17.301330 -1.105823 -62.710618 42.572515 -21.831099 0.000000 0.000000 0.000000
0.025941 0.935516 -0.025539 -1.731058 -9.027935 9.239403 7.034197 -0.327191 -8.640094 1.297273 -0.003152 -3.458706 -3.053793 -3.600335 6.908160 0.000000 0.000000 0.000000 -3.992493 1.137801 -12.612487 -3.585188 0.426990 1.496245 3.430904 3.761852 6.526654 0.000000 0.000000 0.000000 4.749201 -0.357673 2.151462 -2.059376 0.877237 -5.258909 -3.291844 9.455780 6.229035 13.611909 -6.380588 -17.392185 0.000000 0.000000 0.000000 23.300123 -8.142814 3.874861 8.283636 -21.570591 -2.139939 66.056859 -28.507826 -19.064180 0.000000 0.000000 0.000000 -23.934956 3.609513 1.260507 -4.144598 17.457857 -1.093711 -61.347837 40.837275 -19.974958 0.000000 0.000000 0.000000
0.025486 0.935402 -0.023602 -1.835300 -8.563627 9.024208 7.345358 -0.298908 -7.907276 1.188435 0.050197 -4.355644 -3.815720 -4.734701 7.496261 0.000000 0.000000 0.000000 -3.657924 1.086580 -11.918536 -3.467884 0.389607 1.129657 2.960025 2.719410 6.555776 0.000000 0.000000 0.000000 4.756438 -0.307410 1.571305 -1.480673 0.642187 -5.458894 -3.162389 9.223662 5.936594 13.626633 -6.297654 -17.740043 0.000000 0.000000 0.000000 21.804353 -8.068249 3.820574 7.754509 -21.922067 -2.135288 66.761123 -27.446497 -18.600765 0.000000 0.000000 0.000000 -22.373722 3.744453 1.279429 -4.475175 19.275083 -1.268910 -62.423845 36.948230 -18.099514 0.000000 0.000000 0.000000
0.025110 0.934176 -0.022059 -1.806818 -7.817041 8.694924 7.497560 -0.290383 -7.364384 1.262361 0.060533 -4.654954 -4.329586 -5.682761 7.355481 0.000000 0.000000 0.000000 -3.962425 1.021376 -11.380277 -3.070603 0.332598 0.830453 2.827546 2.389544 6.725911 0.000000 0.000000 0.000000 4.664084 -0.279263 1.321785 -1.083979 0.488874 -5.296152 -3.129849 8.662280 5.569015 12.826210 -5.871896 -17.477210 0.000000 0.000000 0.000000 19.829667 -8.384979 3.775783 7.141964 -23.081803 -2.227337 68.317410 -25.279756 -17.615799 0.000000 0.000000 0.000000 -19.841527 3.712718 1.295972 -4.842837 21.554291 -1.511149 -64.015321 33.515436 -16.682875 0.000000 0.000000 0.000000
0.024869 0.933048 -0.021060 -1.877286 -7.129879 8.025612 7.560391 -0.270610 -6.403098 1.297730 0.074414 -4.964177 -4.546180 -6.088747 7.211924 0.000000 0.000000 0.000000 -4.013041 0.946799 -10.607649 -2.972663 0.323681 0.780541 2.939768 2.642045 6.822804 0.000000 0.000000 0.000000 5.022372 -0.267076 1.117189 -1.093952 0.501544 -5.139960 -3.178357 7.893082 5.459358 12.095830 -5.527289 -17.192744 0.000000 0.000000 0.000000 18.231649 -8.913371 3.739194 6.468913 -23.850147 -2.231281 69.894551 -25.840563 -18.338385 0.000000 0.000000 0.000000 -17.825977 3.986442 1.400364 -5.093787 23.221802 -1.713463 -65.407209 32.311767 -16.605901 0.000000 0.000000 0.000000
0.024788 0.932286 -0.020527 -1.706931 -6.707605 7.282224 7.494365 -0.256286 -5.804071 1.012752 0.076700 -4.551349 -4.395853 -5.982281 6.751172 0.000000 0.000000 0.000000 -4.378963 0.888582 -10.128709 -2.821954 0.336717 1.150962 2.818069 2.625820 6.484930 0.000000 0.000000 0.000000 5.200501 -0.251076 0.987840 -1.002931 0.468561 -4.898565 -3.081827 7.223841 4.992635 11.555225 -5.191698 -17.354892 0.000000 0.000000 0.000000 17.278662 -9.851055 3.817064 5.593047 -24.355362 -2.162080 70.293397 -27.828124 -19.633186 0.000000 0.000000 0.000000 -16.896777 4.484201 1.571889 -5.966674 25.115783 -2.019894 -66.122596 33.191203 -17.616444 0.000000 0.000000 0.000000
0.024913 0.932371 -0.020185 -1.560513 -6.582758 7.125962 7.259261 -0.258418 -5.481000 0.972171 0.091440 -4.798265 -3.978460 -5.119402 6.893289 0.000000 0.000000 0.000000 -4.510029 0.870142 -9.964004 -2.962805 0.333239 0.877075 3.085590 3.138502 6.636792 0.000000 0.000000 0.000000 5.730885 -0.180148 0.043073 -1.111217 0.515405 -4.549386 -3.194745 6.895869 4.612984 10.912110 -4.864363 -17.095799 0.000000 0.000000 0.000000 16.541086 -10.805851 3.950471 3.872202 -24.725901 -1.979140 70.035305 -31.523040 -21.948581 0.000000 0.000000 0.000000 -16.270258 5.268961 1.770953 -6.537046 26.552905 -2.259351 -67.212623 36.463437 -20.265065 0.000000 0.000000 0.000000
0.025122 0.932085 -0.019516 -1.293349 -6.818872 6.829625 6.845752 -0.257248 -5.180475 0.909618 0.082891 -4.518437 -3.740299 -4.723367 6.816068 0.000000 0.000000 0.000000 -4.744480 0.842446 -9.666162 -2.841778 0.348248 1.289418 3.223907 4.002713 5.761127 0.000000 0.000000 0.000000 5.872846 -0.135509 -0.395090 -1.173186 0.538984 -4.536388 -3.295014 6.764984 4.408621 10.269551 -4.556690 -16.786778 0.000000 0.000000 0.000000 14.909797 -11.844740 4.098255 2.148322 -24.861050 -1.762775 70.907337 -36.160570 -25.428338 0.000000 0.000000 0.000000 -14.992176 6.097299 1.988953 -6.644791 28.861167 -2.549012 -67.363134 39.290274 -22.363830 0.000000 0.000000 0.000000
0.025354 0.931644 -0.018424 -1.125240 -6.795265 6.507913 6.133412 -0.264052 -4.773155 1.215463 0.049383 -4.322027 -3.166765 -3.958471 6.085059 0.000000 0.000000 0.000000 -4.890047 0.797859 -9.108251 -3.036197 0.359357 1.148519 3.384074 4.425440 5.672217 0.000000 0.000000 0.000000 6.174819 -0.064608 -1.102086 -1.125832 0.519563 -4.260535 -3.406445 6.835060 4.001785 9.921626 -4.399264 -16.402981 0.000000 0.000000 0.000000 11.713865 -12.936648 4.336241 -0.902774 -25.331824 -1.407762 74.394842 -41.465858 -31.053250 0.000000 0.000000 0.000000 -12.628161 7.257061 2.280100 -4.256669 30.617467 -2.315236 -69.731050 44.652568 -27.174897 0.000000 0.000000 0.000000
